<?xml version="1.0" encoding="UTF-8"?>
<svg width="110px" height="30px" viewBox="0 0 110 30" version="1.1" xmlns="http://www.w3.org/2000/svg" xmlns:xlink="http://www.w3.org/1999/xlink">
    <!-- Generator: sketchtool 59 (101010) - https://sketch.com -->
    <title>E06946DC-69DF-4664-9759-7C988E0A5E23</title>
    <desc>Created with sketchtool.</desc>
    <g id="Page-1" stroke="none" stroke-width="1" fill="none" fill-rule="evenodd">
        <g id="dashboard" transform="translate(-25.000000, -15.000000)" fill="#FFFFFF">
            <path d="M68.4029443,37.7894951 C71.9274208,44.6774801 83.6394126,45.5089416 93.9583559,42.0707718 L93.9583559,42.0707718 L97.0371078,42.0707718 C91.6369141,45.0151834 72.1128083,48.3478549 68.4029443,37.7894951 Z M86.6651086,29.9487949 L89.4793501,29.9498136 C91.069218,30.0046546 92.9653931,30.7285809 93.0823716,32.1154783 L93.0823716,32.1154783 L93.0823716,35.6022285 C92.9370549,37.0003603 91.5312199,37.5016546 89.7105013,37.588851 L89.7105013,37.588851 L84.4257126,37.5886315 L84.4257126,39.9315685 C84.3576806,41.1292621 82.8238832,41.1320364 82.7452796,39.9315685 L82.7452796,39.9315685 L82.748335,32.1932552 C82.8140246,31.4803626 83.3934176,30.9375164 84.0648728,30.5610665 C84.897899,30.1436422 85.8367213,29.9518509 86.6651086,29.9487949 L86.6651086,29.9487949 Z M129.698279,39.324265 C129.78542,39.324265 129.864951,39.3396915 129.936921,39.3705436 C130.009495,39.4007912 130.071486,39.443741 130.122894,39.4993929 C130.174906,39.554441 130.215124,39.6212852 130.243549,39.6999254 C130.272574,39.7779608 130.287087,39.8644651 130.287087,39.9594382 C130.287087,40.0538066 130.273474,40.1394036 130.246248,40.2162292 C130.219632,40.2930548 130.18002,40.360504 130.12741,40.4185769 L130.30794,40.5583143 L130.189098,40.6989598 L129.973187,40.5265558 C129.933875,40.5495437 129.890934,40.5667842 129.844364,40.5782771 C129.798402,40.5897711 129.749717,40.5955181 129.698309,40.5955181 C129.60759,40.5955181 129.525641,40.5800921 129.452462,40.54924 C129.379884,40.5177835 129.318195,40.474229 129.267395,40.4185764 C129.216592,40.3623181 129.177582,40.2951714 129.150366,40.2171363 C129.123139,40.1391009 129.109526,40.0532014 129.109526,39.9594377 C129.109526,39.8644645 129.123734,39.7779603 129.152148,39.6999248 C129.181174,39.6212847 129.221696,39.5544405 129.273715,39.4993924 C129.325727,39.4437391 129.387718,39.4007893 129.459688,39.3705431 C129.531658,39.339691 129.611188,39.324265 129.698279,39.324265 Z M90.0687187,39.324265 C90.1364554,39.324265 90.1987486,39.3327335 90.2555981,39.3496705 C90.313052,39.3666076 90.3653661,39.3926195 90.4125404,39.4277061 C90.4657643,39.4676311 90.5053784,39.512698 90.5313827,39.5629068 C90.557998,39.6131156 90.5746326,39.6702811 90.5812864,39.7344032 L90.3735442,39.7344032 C90.3699117,39.6981077 90.359931,39.6654417 90.3436019,39.6364053 C90.3278839,39.606762 90.3067156,39.5816576 90.2800968,39.5610921 C90.2540925,39.5405252 90.223249,39.5247969 90.1875661,39.5139074 C90.1518832,39.5024134 90.1128734,39.4966664 90.0705366,39.4966664 C90.0148956,39.4966664 89.9643961,39.5069499 89.919038,39.5275168 C89.8736765,39.5480837 89.8349688,39.5780274 89.802915,39.617348 C89.771479,39.6566683 89.7469854,39.7050623 89.7294342,39.7625302 C89.7124941,39.819998 89.704024,39.8856323 89.704024,39.9594331 C89.704024,40.0332343 89.7124941,40.0988688 89.7294342,40.1563366 C89.7463743,40.2138044 89.7705658,40.2621985 89.8020085,40.3015187 C89.8340556,40.3408386 89.8721573,40.3707824 89.9163136,40.39135 C89.9610675,40.4119169 90.0112649,40.4222004 90.0669059,40.4222004 C90.1110554,40.4222004 90.1509717,40.4167556 90.1866546,40.405866 C90.2223375,40.394372 90.2531827,40.3780394 90.2791904,40.3568681 C90.3058057,40.3350923 90.3269741,40.3087781 90.3426955,40.2779253 C90.3590246,40.2464689 90.3693108,40.2104759 90.3735544,40.1699465 L90.5794838,40.1699465 C90.5667872,40.3060545 90.514171,40.4113115 90.4216351,40.4857174 C90.3303112,40.5589134 90.2126792,40.5955161 90.0687391,40.5955161 C89.981618,40.5955161 89.9029941,40.5816027 89.8328368,40.5537761 C89.762683,40.5253451 89.7019023,40.4826979 89.6504946,40.4258344 C89.5972707,40.3677615 89.5579587,40.3000099 89.5325587,40.2225796 C89.5071655,40.1451489 89.4944689,40.0574346 89.4944689,39.9594367 C89.4944689,39.7646507 89.5464809,39.6097899 89.6505048,39.4948542 C89.703121,39.4367813 89.7642039,39.3938315 89.8337534,39.3660049 C89.9033064,39.3381783 89.9816282,39.324265 90.0687187,39.324265 Z M130.703458,39.3442283 L130.703458,40.0565295 C130.703458,40.1236761 130.709212,40.1802366 130.72072,40.2262111 C130.732229,40.2721853 130.749768,40.3093881 130.773338,40.3378195 C130.796932,40.3656461 130.826869,40.3859111 130.86315,40.3986146 C130.899437,40.410713 130.94268,40.4167622 130.992879,40.4167622 C131.040658,40.4167622 131.082389,40.4113174 131.118071,40.4004278 C131.154359,40.3895383 131.184598,40.3704832 131.208789,40.3432627 C131.232994,40.3160405 131.251138,40.2791399 131.26322,40.232561 C131.275306,40.1859817 131.281348,40.127304 131.281348,40.056528 L131.281348,39.3442283 L131.485465,39.3442283 L131.485465,40.056528 C131.485465,40.0994778 131.483649,40.1427299 131.480016,40.1862844 C131.476961,40.2292342 131.469696,40.2706716 131.458222,40.3105966 C131.447324,40.3505216 131.430995,40.3880269 131.409234,40.4231126 C131.387474,40.4575935 131.358445,40.4875372 131.322147,40.5129438 C131.28586,40.5383494 131.240802,40.5586145 131.186974,40.573739 C131.13315,40.5882584 131.068438,40.5955181 130.992838,40.5955181 C130.921524,40.5955181 130.859533,40.5888625 130.806916,40.5755553 C130.754904,40.5628525 130.710451,40.5450073 130.673556,40.5220197 C130.637269,40.4984273 130.607634,40.4702981 130.584651,40.4376322 C130.561668,40.4043625 130.543827,40.3677646 130.531127,40.3278386 C130.51843,40.2879136 130.509655,40.2452663 130.5048,40.1998969 C130.500556,40.1539224 130.498435,40.1061332 130.498435,40.0565295 L130.498435,39.3442283 L130.703458,39.3442283 Z M99.993351,39.3242665 C100.070763,39.3242665 100.140918,39.3333394 100.203818,39.3514853 C100.267321,39.3690268 100.322054,39.3950386 100.368016,39.4295209 C100.414586,39.4640014 100.451479,39.5063461 100.478696,39.5565549 C100.506533,39.6067637 100.523769,39.6642317 100.530402,39.7289589 L100.324473,39.7289589 C100.314186,39.6557629 100.28062,39.5988998 100.223774,39.5583697 C100.167529,39.5172348 100.091325,39.4966674 99.9951638,39.4966674 C99.9377066,39.4966674 99.8853925,39.5072531 99.8382215,39.5284244 C99.7916515,39.5489913 99.7514314,39.5789351 99.7175614,39.6182557 C99.6842922,39.6575759 99.6582862,39.70597 99.6395434,39.7634378 C99.6214151,39.820906 99.612351,39.8862379 99.612351,39.9594336 C99.612351,40.0332348 99.6217207,40.0988693 99.64046,40.1563371 C99.6591994,40.2138049 99.6855092,40.262199 99.7193895,40.3015192 C99.7532697,40.3408391 99.7940924,40.3707829 99.8418574,40.3913505 C99.889636,40.4119174 99.9425561,40.4222009 100.000618,40.4222009 C100.079846,40.4222009 100.148791,40.4101025 100.207453,40.3859057 C100.266119,40.3617089 100.314504,40.3242036 100.352607,40.2733897 L100.352607,40.1046152 L100.053235,40.1046152 L100.053235,39.9394708 L100.55128,39.9394708 L100.55128,40.5746425 L100.415201,40.5746425 L100.378028,40.4575894 C100.334482,40.5029588 100.280354,40.5374396 100.215642,40.5610316 C100.150926,40.5840195 100.075025,40.5955161 99.9879379,40.5955161 C99.8990006,40.5955161 99.8185622,40.5806961 99.7465921,40.5510563 C99.6752263,40.5214164 99.6141434,40.4790717 99.5633434,40.4240222 C99.5125401,40.3689741 99.4732281,40.3021298 99.4454076,40.2234892 C99.4181812,40.1448491 99.404568,40.0568324 99.404568,39.9594392 C99.404568,39.8644661 99.4181812,39.7779618 99.4454076,39.6999264 C99.4732451,39.6212862 99.512557,39.554442 99.5633434,39.4993939 C99.6147477,39.4437406 99.6767387,39.4007909 99.7493165,39.3705446 C99.8218908,39.3396925 99.9032356,39.3242665 99.993351,39.3242665 Z M93.6211796,39.3242655 C93.7083465,39.3242655 93.7878768,39.3396915 93.8598469,39.3705436 C93.9324212,39.4007912 93.9944122,39.443741 94.0458199,39.4993929 C94.0978318,39.554441 94.1380502,39.6212852 94.166475,39.6999254 C94.1955006,39.7779608 94.2100135,39.8644651 94.2100135,39.9594382 C94.2100135,40.0544117 94.1960947,40.1409162 94.1682573,40.2189516 C94.1404198,40.2969867 94.1008057,40.3641334 94.049415,40.4203917 C93.9980073,40.4760446 93.9360163,40.5192968 93.863442,40.5501481 C93.7908676,40.5803958 93.7101271,40.5955196 93.6212203,40.5955196 C93.5323169,40.5955196 93.451578,40.5803958 93.3790037,40.5501481 C93.3070336,40.5199005 93.2453448,40.4769507 93.1939371,40.4212988 C93.1425294,40.3656456 93.1026132,40.2988014 93.0741884,40.2207663 C93.046351,40.1421258 93.0324322,40.0550165 93.0324322,39.9594382 C93.0324322,39.8644651 93.0466395,39.7779608 93.0750541,39.6999254 C93.1040798,39.6212852 93.1446003,39.554441 93.1966156,39.4993929 C93.2486276,39.4437396 93.3106186,39.4007899 93.3825886,39.3705436 C93.4545587,39.3396915 93.534089,39.3242655 93.6211796,39.3242655 Z M122.937892,39.3242655 C123.02505,39.3242655 123.10458,39.3396915 123.176554,39.3705436 C123.249128,39.4007912 123.311119,39.443741 123.362527,39.4993929 C123.414539,39.554441 123.454757,39.6212852 123.483182,39.6999254 C123.512208,39.7779608 123.52672,39.8644651 123.52672,39.9594382 C123.52672,40.0544117 123.512802,40.1409162 123.484964,40.2189516 C123.457161,40.2969867 123.417547,40.3641334 123.366122,40.4203917 C123.314714,40.4760446 123.252723,40.5192968 123.180149,40.5501481 C123.107575,40.5803958 123.026836,40.5955196 122.937932,40.5955196 C122.849026,40.5955196 122.768285,40.5803958 122.695711,40.5501481 C122.623741,40.5199005 122.562052,40.4769507 122.510644,40.4212988 C122.459236,40.3656456 122.41932,40.2988014 122.390895,40.2207663 C122.363058,40.1421258 122.349139,40.0550165 122.349139,39.9594382 C122.349139,39.8644651 122.363346,39.7779608 122.391761,39.6999254 C122.420787,39.6212852 122.461309,39.554441 122.513328,39.4993929 C122.56534,39.4437396 122.627331,39.4007899 122.699301,39.3705436 C122.771271,39.3396915 122.850801,39.3242655 122.937892,39.3242655 Z M116.750853,39.3242655 C116.838025,39.3242655 116.917555,39.3396915 116.989525,39.3705436 C117.0621,39.4007912 117.124091,39.443741 117.175498,39.4993929 C117.22751,39.554441 117.267729,39.6212852 117.296154,39.6999254 C117.325179,39.7779608 117.339692,39.8644651 117.339692,39.9594382 C117.339692,40.0544117 117.325773,40.1409162 117.297936,40.2189516 C117.270098,40.2969867 117.230484,40.3641334 117.179094,40.4203917 C117.127686,40.4760446 117.065695,40.5192968 116.993121,40.5501481 C116.920543,40.5803958 116.839802,40.5955196 116.750899,40.5955196 C116.661995,40.5955196 116.581255,40.5803958 116.508677,40.5501481 C116.436707,40.5199005 116.375018,40.4769507 116.323611,40.4212988 C116.272206,40.3656456 116.23229,40.2988014 116.203862,40.2207663 C116.176024,40.1421258 116.162106,40.0550165 116.162106,39.9594382 C116.162106,39.8644651 116.176313,39.7779608 116.204728,39.6999254 C116.233753,39.6212852 116.274274,39.554441 116.326289,39.4993929 C116.378301,39.4437396 116.440292,39.4007899 116.512262,39.3705436 C116.584232,39.3396915 116.663762,39.3242655 116.750853,39.3242655 Z M101.69705,39.3442278 L101.69705,39.5211684 L101.000328,39.5211684 L101.000328,39.8532726 L101.652595,39.8532726 L101.652595,40.032028 L101.000328,40.032028 L101.000328,40.3977055 L101.726081,40.3977055 L101.726081,40.5746461 L100.795305,40.5746461 L100.795305,39.3442278 L101.69705,39.3442278 Z M127.004886,39.3442278 L127.478437,40.5746461 L127.264345,40.5746461 L127.138246,40.2343752 L126.652896,40.2343752 L126.534054,40.5746461 L126.326312,40.5746461 L126.779906,39.3442278 L127.004886,39.3442278 Z M92.3911077,39.3442273 C92.4564273,39.3442273 92.5166055,39.3499743 92.5716422,39.3614682 C92.6266755,39.3729622 92.6738482,39.3923198 92.7131601,39.419541 C92.7530764,39.4461588 92.7839216,39.4818494 92.805696,39.5266127 C92.8280678,39.5707723 92.8392537,39.6258205 92.8392537,39.6917572 C92.8392537,39.7782618 92.8156682,39.8487356 92.7684973,39.9031787 C92.7219272,39.9576221 92.6557012,39.9930103 92.5698192,40.0093433 C92.614573,40.0268847 92.6523726,40.0553163 92.6832179,40.0946379 C92.7146538,40.1333531 92.7418701,40.1838642 92.7648665,40.2461714 L92.8891575,40.5746461 L92.6668973,40.5746461 L92.5553115,40.2606895 C92.5329396,40.1983823 92.5023965,40.1515006 92.463682,40.1200445 C92.425582,40.088588 92.3741761,40.0728598 92.3094641,40.0728598 L92.0500052,40.0728598 L92.0500052,40.5746461 L91.8449822,40.5746461 L91.8449822,39.3442273 L92.3911077,39.3442273 Z M128.494488,39.3442278 L128.494488,39.5229832 L128.106211,39.5229832 L128.106211,40.5746461 L127.902094,40.5746461 L127.902094,39.5229832 L127.515636,39.5229832 L127.515636,39.3442278 L128.494488,39.3442278 Z M125.273215,39.3442278 L125.588917,40.3196699 L125.895545,39.3442278 L126.194917,39.3442278 L126.194917,40.5746461 L126.003348,40.5746461 L126.003602,39.8718739 L126.00513,39.6638551 L126.00513,39.6638551 L126.005,39.561 L125.680608,40.5746461 L125.496448,40.5746461 L125.165,39.561 L125.166981,39.6638551 L125.166981,39.6638551 L125.168636,39.8718739 L125.168636,39.8718739 L125.16889,40.5746461 L124.975656,40.5746461 L124.975656,39.3442278 L125.273215,39.3442278 Z M122.19044,39.3442278 L122.19044,39.5211684 L121.549966,39.5211684 L121.549966,39.8723278 L122.101535,39.8723278 L122.101535,40.0483608 L121.549966,40.0483608 L121.549966,40.5746461 L121.344938,40.5746461 L121.344938,39.3442278 L122.19044,39.3442278 Z M89.3012242,39.3442278 L89.3012242,39.5211684 L88.6045065,39.5211684 L88.6045065,39.8532726 L89.2567742,39.8532726 L89.2567742,40.032028 L88.6045065,40.032028 L88.6045065,40.3977055 L89.330255,40.3977055 L89.330255,40.5746461 L88.3994784,40.5746461 L88.3994784,39.3442278 L89.3012242,39.3442278 Z M112.25763,39.3442278 L112.497127,40.039287 L112.608713,40.3759279 L112.718481,40.039287 L112.957978,39.3442278 L113.171169,39.3442278 L112.718481,40.5746461 L112.497127,40.5746461 L112.043532,39.3442278 L112.25763,39.3442278 Z M97.2572088,39.3442278 L97.8459715,40.2661338 C97.8459715,40.176 97.845632,40.0867736 97.844953,39.9984547 L97.8441892,39.8652954 L97.8439346,39.3442278 L98.0353512,39.3442278 L98.0353512,40.5746461 L97.8297069,40.5746461 L97.23822,39.6509249 L97.2398749,39.785672 L97.2398749,39.785672 L97.2415299,40.0533517 L97.2415299,40.0533517 L97.2417845,40.5746461 L97.0485551,40.5746461 L97.0485551,39.3442278 L97.2572088,39.3442278 Z M120.29979,39.3442278 L120.888558,40.2661338 L120.888303,40.1316136 L120.888303,40.1316136 L120.886775,39.8652954 L120.886775,39.8652954 L120.886521,39.3442278 L121.077937,39.3442278 L121.077937,40.5746461 L120.872293,40.5746461 L120.280806,39.6509249 L120.282461,39.785672 L120.282461,39.785672 L120.284116,40.0533517 L120.284371,40.5746461 L120.091136,40.5746461 L120.091136,39.3442278 L120.29979,39.3442278 Z M124.284224,39.3442273 C124.349544,39.3442273 124.409722,39.3499743 124.464759,39.3614682 C124.519792,39.3729622 124.566964,39.3923198 124.606276,39.419541 C124.646193,39.4461588 124.677038,39.4818494 124.698812,39.5266127 C124.721184,39.5707723 124.73237,39.6258205 124.73237,39.6917572 C124.73237,39.7782618 124.708785,39.8487356 124.661614,39.9031787 C124.615044,39.9576221 124.548818,39.9930103 124.462935,40.0093433 C124.507693,40.0268847 124.545492,40.0553163 124.576334,40.0946379 C124.60777,40.1333531 124.634986,40.1838642 124.657983,40.2461714 L124.782274,40.5746461 L124.560014,40.5746461 L124.448428,40.2606895 C124.426056,40.1983823 124.395514,40.1515006 124.356803,40.1200445 C124.3187,40.088588 124.267292,40.0728598 124.20258,40.0728598 L123.943122,40.0728598 L123.943122,40.5746461 L123.738099,40.5746461 L123.738099,39.3442273 L124.284224,39.3442273 Z M94.7191185,39.3442278 L95.0348209,40.3196699 L95.341449,39.3442278 L95.6408207,39.3442278 L95.6408207,40.5746461 L95.4492412,40.5746461 L95.4494958,39.8718739 L95.4510234,39.6638551 L95.4510234,39.6638551 L95.451,39.561 L95.1265064,40.5746461 L94.9423462,40.5746461 L94.611,39.561 L94.6128795,39.6638551 L94.6128795,39.6638551 L94.6145344,39.8718739 L94.6145344,39.8718739 L94.614789,40.5746461 L94.4215596,40.5746461 L94.4215596,39.3442278 L94.7191185,39.3442278 Z M128.881858,39.3442278 L128.881858,40.5746461 L128.677742,40.5746461 L128.677742,39.3442278 L128.881858,39.3442278 Z M110.132992,39.3442278 L110.132992,39.5229832 L109.744715,39.5229832 L109.744715,40.5746461 L109.540599,40.5746461 L109.540599,39.5229832 L109.15414,39.5229832 L109.15414,39.3442278 L110.132992,39.3442278 Z M96.8054881,39.3442278 L96.8054881,39.5211684 L96.1087653,39.5211684 L96.1087653,39.8532726 L96.7610381,39.8532726 L96.7610381,40.032028 L96.1087653,40.032028 L96.1087653,40.3977055 L96.8345188,40.3977055 L96.8345188,40.5746461 L95.9037423,40.5746461 L95.9037423,39.3442278 L96.8054881,39.3442278 Z M102.486304,39.3442273 C102.55162,39.3442273 102.611797,39.3499743 102.666833,39.3614682 C102.72187,39.3729622 102.769044,39.3923198 102.808356,39.419541 C102.848273,39.4461588 102.879116,39.4818494 102.900887,39.5266127 C102.923259,39.5707723 102.934445,39.6258205 102.934445,39.6917572 C102.934445,39.7782618 102.910858,39.8487356 102.863683,39.9031787 C102.817113,39.9576221 102.750889,39.9930103 102.66501,40.0093433 C102.709764,40.0268847 102.747564,40.0553163 102.778409,40.0946379 C102.809845,40.1333531 102.837059,40.1838642 102.860053,40.2461714 L102.984349,40.5746461 L102.762088,40.5746461 L102.650503,40.2606895 C102.628131,40.1983823 102.597589,40.1515006 102.558878,40.1200445 C102.520775,40.088588 102.469367,40.0728598 102.404655,40.0728598 L102.145201,40.0728598 L102.145201,40.5746461 L101.940173,40.5746461 L101.940173,39.3442273 L102.486304,39.3442273 Z M87.1856609,39.3442278 L87.1856609,39.5211684 L86.4889432,39.5211684 L86.4889432,39.8532726 L87.1412109,39.8532726 L87.1412109,40.032028 L86.4889432,40.032028 L86.4889432,40.3977055 L87.2146917,40.3977055 L87.2146917,40.5746461 L86.2839151,40.5746461 L86.2839151,39.3442278 L87.1856609,39.3442278 Z M110.38882,39.3442278 L110.628318,40.039287 L110.739903,40.3759279 L110.849676,40.039287 L111.089174,39.3442278 L111.30236,39.3442278 L110.849676,40.5746461 L110.628318,40.5746461 L110.174728,39.3442278 L110.38882,39.3442278 Z M108.248763,39.3442278 L108.248763,40.5746461 L108.044647,40.5746461 L108.044647,39.3442278 L108.248763,39.3442278 Z M87.6356249,39.3442278 L87.6356249,40.3958907 L88.2135054,40.3958907 L88.2135054,40.5746461 L87.4306018,40.5746461 L87.4306018,39.3442278 L87.6356249,39.3442278 Z M119.813605,39.3442278 L119.813605,40.5746461 L119.609489,40.5746461 L119.609489,39.3442278 L119.813605,39.3442278 Z M114.215344,39.3442278 C114.426417,39.3442278 114.584872,39.3944366 114.690708,39.4948542 C114.797153,39.5952718 114.850375,39.7477129 114.850375,39.9521777 C114.850375,40.3671566 114.638698,40.5746461 114.215344,40.5746461 L113.815274,40.5746461 L113.815274,39.3442278 L114.215344,39.3442278 Z M105.423782,39.3442278 L105.423782,39.8369393 L106.001658,39.8369393 L106.001658,39.3442278 L106.205774,39.3442278 L106.205774,40.5746461 L106.001658,40.5746461 L106.001658,40.0138799 L105.423782,40.0138799 L105.423782,40.5746461 L105.218754,40.5746461 L105.218754,39.3442278 L105.423782,39.3442278 Z M113.535859,39.3442278 L113.535859,40.5746461 L113.331742,40.5746461 L113.331742,39.3442278 L113.535859,39.3442278 Z M106.692025,39.3442278 L106.692025,40.5746461 L106.487909,40.5746461 L106.487909,39.3442278 L106.692025,39.3442278 Z M98.8493835,39.3442278 L99.3229346,40.5746461 L99.1088423,40.5746461 L98.9827386,40.2343752 L98.4973939,40.2343752 L98.3785516,40.5746461 L98.1708093,40.5746461 L98.624399,39.3442278 L98.8493835,39.3442278 Z M91.6807785,39.3442278 L91.6807785,39.5229832 L91.2925068,39.5229832 L91.2925068,40.5746461 L91.0883851,40.5746461 L91.0883851,39.5229832 L90.7019262,39.5229832 L90.7019262,39.3442278 L91.6807785,39.3442278 Z M132.653952,39.3442278 L132.653952,39.5211684 L131.957229,39.5211684 L131.957229,39.8532726 L132.609496,39.8532726 L132.609496,40.032028 L131.957229,40.032028 L131.957229,40.3977055 L132.682982,40.3977055 L132.682982,40.5746461 L131.752206,40.5746461 L131.752206,39.3442278 L132.653952,39.3442278 Z M107.816943,39.3442278 L107.816943,39.5211684 L107.176469,39.5211684 L107.176469,39.8723278 L107.728038,39.8723278 L107.728038,40.0483608 L107.176469,40.0483608 L107.176469,40.5746461 L106.971441,40.5746461 L106.971441,39.3442278 L107.816943,39.3442278 Z M115.968937,39.3442278 L115.968937,39.5211684 L115.27222,39.5211684 L115.27222,39.8532726 L115.924487,39.8532726 L115.924487,40.032028 L115.27222,40.032028 L115.27222,40.3977055 L115.997968,40.3977055 L115.997968,40.5746461 L115.067192,40.5746461 L115.067192,39.3442278 L115.968937,39.3442278 Z M93.6228498,39.4966644 C93.5653926,39.4966644 93.5130768,39.5078561 93.4659025,39.5302397 C93.4187281,39.5520188 93.3782076,39.5831726 93.344341,39.623701 C93.3110718,39.6642307 93.2853679,39.7129271 93.2672294,39.7697902 C93.2491011,39.8266533 93.240037,39.8898679 93.240037,39.9594341 C93.240037,40.0296054 93.2491011,40.0931226 93.2672294,40.1499857 C93.2859688,40.2068488 93.3119748,40.2555454 93.3452474,40.2960755 C93.3785165,40.3366052 93.4184328,40.3677588 93.464996,40.3895362 C93.5115661,40.4113154 93.5629738,40.4222049 93.6192191,40.4222049 C93.6766729,40.4222049 93.7286848,40.4113154 93.7752549,40.3895362 C93.8224292,40.3677571 93.8626476,40.3366035 93.89591,40.2960755 C93.9291792,40.2555454 93.954883,40.2068488 93.9730215,40.1499857 C93.9911498,40.0931226 94.000214,40.0296054 94.000214,39.9594341 C94.000214,39.8904727 93.9911498,39.827863 93.9730215,39.771605 C93.9554703,39.7147419 93.9303724,39.6660455 93.8977279,39.6255157 C93.8650698,39.5843805 93.8254557,39.5526218 93.7788857,39.5302397 C93.7323156,39.5078561 93.6803036,39.4966644 93.6228498,39.4966644 Z M122.939557,39.4966644 C122.8821,39.4966644 122.829785,39.5078561 122.782615,39.5302397 C122.73544,39.5520188 122.694918,39.5831726 122.661048,39.623701 C122.627779,39.6642307 122.602075,39.7129271 122.583936,39.7697902 C122.565808,39.8266533 122.556744,39.8898679 122.556744,39.9594341 C122.556744,40.0296054 122.565808,40.0931226 122.583936,40.1499857 C122.602676,40.2068488 122.628682,40.2555454 122.661954,40.2960755 C122.695224,40.3366052 122.73514,40.3677588 122.781703,40.3895362 C122.828273,40.4113154 122.879681,40.4222049 122.935926,40.4222049 C122.993383,40.4222049 123.045395,40.4113154 123.091962,40.3895362 C123.139136,40.3677571 123.179356,40.3366035 123.212622,40.2960755 C123.245891,40.2555454 123.271593,40.2068488 123.289728,40.1499857 C123.307857,40.0931226 123.316921,40.0296054 123.316921,39.9594341 C123.316921,39.8904727 123.307857,39.827863 123.289728,39.771605 C123.272177,39.7147419 123.247079,39.6660455 123.214435,39.6255157 C123.181777,39.5843805 123.142163,39.5526218 123.095593,39.5302397 C123.049023,39.5078561 122.997011,39.4966644 122.939557,39.4966644 Z M116.752523,39.4966644 C116.695069,39.4966644 116.642755,39.5078561 116.595581,39.5302397 C116.548407,39.5520188 116.507886,39.5831726 116.474019,39.623701 C116.44075,39.6642307 116.415046,39.7129271 116.396908,39.7697902 C116.37878,39.8266533 116.369716,39.8898679 116.369716,39.9594341 C116.369716,40.0296054 116.37878,40.0931226 116.396908,40.1499857 C116.415647,40.2068488 116.441653,40.2555454 116.474926,40.2960755 C116.508195,40.3366052 116.548111,40.3677588 116.594675,40.3895362 C116.641245,40.4113154 116.692652,40.4222049 116.748898,40.4222049 C116.806351,40.4222049 116.858363,40.4113154 116.904933,40.3895362 C116.952108,40.3677571 116.992326,40.3366035 117.025589,40.2960755 C117.058858,40.2555454 117.084562,40.2068488 117.1027,40.1499857 C117.120828,40.0931226 117.129892,40.0296054 117.129892,39.9594341 C117.129892,39.8904727 117.120828,39.827863 117.1027,39.771605 C117.085149,39.7147419 117.060049,39.6660455 117.027401,39.6255157 C116.994743,39.5843805 116.955129,39.5526218 116.908559,39.5302397 C116.861992,39.5078561 116.80998,39.4966644 116.752523,39.4966644 Z M129.700148,39.4966669 C129.640877,39.4966669 129.587655,39.5081609 129.540481,39.5311488 C129.493307,39.5535324 129.453088,39.5852909 129.419826,39.6264244 C129.387168,39.6669545 129.361766,39.715651 129.343621,39.7725141 C129.32607,39.8287721 129.317294,39.8910793 129.317294,39.9594357 C129.317294,40.0302121 129.326358,40.0940318 129.344486,40.1508949 C129.362615,40.2077576 129.388319,40.256454 129.421598,40.2969841 C129.455478,40.3369091 129.496,40.3677603 129.543165,40.3895378 C129.590339,40.4113169 129.642653,40.4222065 129.700107,40.4222065 C129.726722,40.4222065 129.750611,40.4200893 129.771775,40.4158551 C129.793535,40.4116208 129.813796,40.4055716 129.832555,40.3977075 L129.728231,40.3124129 L129.836227,40.1844692 L129.975026,40.2978928 C130.008906,40.254943 130.034308,40.2053391 130.051231,40.1490811 C130.068782,40.0928228 130.077558,40.029608 130.077558,39.9594367 C130.077558,39.8904752 130.068782,39.8278655 130.051231,39.7716075 C130.034291,39.7147444 130.009493,39.666048 129.976838,39.6255183 C129.94418,39.5843831 129.904566,39.5526244 129.857996,39.5302422 C129.81143,39.5078587 129.758813,39.4966669 129.700148,39.4966669 Z M114.211714,39.5211684 L114.020297,39.5211684 L114.020297,40.3977055 L114.211714,40.3977055 C114.377428,40.3977055 114.489919,40.3592927 114.549185,40.2824671 C114.580044,40.2425421 114.602725,40.1953579 114.617228,40.1409145 C114.631757,40.0864711 114.639022,40.0235588 114.639022,39.9521777 C114.639022,39.8838213 114.631757,39.8233289 114.617228,39.7707004 C114.602698,39.7180716 114.580017,39.6727021 114.549185,39.634592 C114.490523,39.5589763 114.378032,39.5211684 114.211714,39.5211684 Z M118.678712,40.0411018 L118.678712,40.1971725 L118.203343,40.1971725 L118.203343,40.0411018 L118.678712,40.0411018 Z M104.305215,40.0411018 L104.305215,40.1971725 L103.829851,40.1971725 L103.829851,40.0411018 L104.305215,40.0411018 Z M98.7450591,39.5620007 L98.7277965,39.5620007 L98.5536171,40.0710455 L98.9292142,40.0710455 L98.7450591,39.5620007 Z M126.900561,39.5620007 L126.883299,39.5620007 L126.709119,40.0710455 L127.084722,40.0710455 L126.900561,39.5620007 Z M102.486334,39.5093707 L102.145232,39.5093707 L102.145232,39.8986405 L102.46453,39.8986421 C102.509891,39.8986421 102.548901,39.8950122 102.581559,39.8877525 C102.614217,39.8804928 102.640827,39.8689988 102.66139,39.8532706 C102.682573,39.8375423 102.698003,39.8172773 102.707678,39.7924754 C102.717964,39.7670698 102.723107,39.7365212 102.723107,39.7008294 C102.723107,39.6367073 102.703755,39.5889182 102.665051,39.5574621 C102.626948,39.5254012 102.567375,39.5093707 102.486334,39.5093707 Z M124.284204,39.5093707 L123.943101,39.5093707 L123.943101,39.8986405 L124.262455,39.8986421 C124.307813,39.8986421 124.346821,39.8950122 124.379479,39.8877525 C124.412137,39.8804928 124.438749,39.8689988 124.459315,39.8532706 C124.480499,39.8375423 124.495911,39.8172773 124.505552,39.7924754 C124.515839,39.7670698 124.520982,39.7365212 124.520982,39.7008294 C124.520982,39.6367073 124.501628,39.5889182 124.46292,39.5574621 C124.42482,39.5254012 124.365248,39.5093707 124.284204,39.5093707 Z M92.3910873,39.5093707 L92.0499849,39.5093707 L92.0499849,39.8986405 L92.3693384,39.8986421 C92.4146966,39.8986421 92.4537047,39.8950122 92.4863628,39.8877525 C92.5190209,39.8804928 92.5456328,39.8689988 92.5661986,39.8532706 C92.5873483,39.8375423 92.6027608,39.8172773 92.612436,39.7924754 C92.6227223,39.7670698 92.6278654,39.7365212 92.6278654,39.7008294 C92.6278654,39.6367073 92.6085116,39.5889182 92.5698039,39.5574621 C92.5317039,39.5254012 92.4721317,39.5093707 92.3910873,39.5093707 Z M36.597733,28.0228114 C36.8247799,28.0196187 37.0434894,28.1083855 37.2040526,28.268984 C37.3646157,28.4295825 37.4533631,28.6483401 37.4500832,28.875437 L37.4500832,28.875437 L37.4500832,36.7412666 C37.4593219,37.0474516 37.3012857,37.3344171 37.0376127,37.4902395 C36.7739397,37.6460619 36.4463906,37.6460619 36.1827176,37.4902395 C35.9190446,37.3344171 35.7610084,37.0474516 35.770247,36.7412666 L35.770247,36.7412666 L35.770247,28.875437 C35.7635422,28.411525 36.1339278,28.0299262 36.597733,28.0228114 Z M94.8525347,28.0228114 C95.0795818,28.0196184 95.2982915,28.1083851 95.4588549,28.2689836 C95.6194183,28.4295822 95.7081658,28.6483399 95.7048859,28.875437 L95.7048859,28.875437 L95.7048859,36.7412666 C95.7141183,37.0474478 95.5560806,37.3344069 95.29241,37.4902255 C95.0287395,37.646044 94.7011952,37.646044 94.4375246,37.4902255 C94.173854,37.3344069 94.0158164,37.0474478 94.0250487,36.7412666 L94.0250487,36.7412666 L94.0250487,28.875437 C94.0183439,28.411525 94.3887295,28.0299262 94.8525347,28.0228114 Z M60.6837317,28.0228096 C61.1572762,28.0160568 61.5429208,28.4017883 61.5360819,28.875437 L61.5360819,28.875437 L61.5360819,29.9995531 L63.4971926,29.9995531 C64.3782339,30.0099751 64.4027484,31.3147175 63.4971926,31.3747553 L63.4971926,31.3747553 L61.5360819,31.3747553 L61.5360819,36.7412666 C61.5709158,37.8957187 59.8214098,37.8957187 59.8562457,36.7412666 L59.8562457,36.7412666 L59.8562457,28.875437 C59.8495408,28.4115253 60.2199266,28.0299281 60.6837317,28.0228096 Z M69.6078581,29.9995531 C70.4888989,30.0099751 70.5134129,31.3147175 69.6078581,31.3747553 L69.6078581,31.3747553 L67.0990984,31.3747553 C66.6503988,31.4440685 66.1660008,31.665118 66.0681629,32.3934235 L66.0681629,32.3934235 L66.0681629,36.7412666 C66.1029968,37.8957187 64.3534908,37.8957187 64.3883267,36.7412666 L64.3883267,36.7412666 L64.3883267,32.1861245 C64.5527301,30.7422693 66.3482091,30.0729752 67.5959214,29.9995531 L67.5959214,29.9995531 Z M131.516533,28.0228096 C131.990079,28.0160568 132.375708,28.4017883 132.368884,28.875437 L132.368884,28.875437 L132.368884,29.9995531 L134.329995,29.9995531 C135.211036,30.0099751 135.23555,31.3147175 134.329995,31.3747553 L134.329995,31.3747553 L132.368884,31.3747553 L132.368884,36.7412666 C132.40372,37.8957187 130.654216,37.8957187 130.689047,36.7412666 L130.689047,36.7412666 L130.689047,28.875437 C130.682345,28.4115253 131.052728,28.0299281 131.516533,28.0228096 Z M115.22143,30.0092305 C117.141202,30.0762344 118.375022,31.0786692 118.46712,31.9314417 L118.46712,31.9314417 L118.46712,36.7412666 C118.50193,37.8956963 116.752452,37.8956963 116.787283,36.7412666 L116.787283,36.7412666 L116.787283,32.1861245 C116.649859,31.620208 116.137734,31.3912475 114.784008,31.3747553 L114.784008,31.3747553 L111.35127,31.3747553 C110.611259,31.419539 109.92442,31.4815968 109.657577,32.1861245 L109.657577,32.1861245 L109.657577,36.7412666 C109.692388,37.8956963 107.942909,37.8956963 107.97774,36.7412666 L107.97774,36.7412666 L107.97774,31.9314417 C108.350542,30.5707815 109.980485,30.1376183 111.147653,30.0092305 L111.147653,30.0092305 Z M28.7653319,28.063376 L28.9197785,28.0642709 L30.75421,28.0652896 C31.7798144,28.1690909 31.5271313,29.4249326 30.75421,29.4387763 L30.75421,29.4387763 L28.7478748,29.4387763 C27.7147472,29.4381895 26.6906368,29.6303343 26.7313644,30.8397675 L26.7313644,30.8397675 L26.7313644,32.1387564 L34.1660059,32.1385573 C35.0362812,32.1613963 35.1115249,33.4694917 34.1659906,33.6158254 L34.1659906,33.6158254 L26.7313461,33.6158254 L26.7313461,35.337884 C26.8089062,35.9132263 27.9379774,36.1336605 28.7140391,36.1623172 L28.7140391,36.1623172 L34.1043824,36.1623172 C35.0551953,36.1623172 35.0551953,37.588851 34.1043824,37.588851 L34.1043824,37.588851 L28.4097513,37.5886315 C27.6007211,37.5478644 25.5710127,37.2926238 25.0248653,35.7392393 L25.0248653,35.7392393 L25,34.1916077 L25.0030044,30.3087312 C25.3209571,28.5050156 27.5046014,28.0379384 28.9197785,28.0642709 Z M42.3630313,29.9487949 L45.2792619,29.9498136 C46.8691368,30.0046546 48.7653059,30.7285809 48.882291,32.1154783 L48.882291,32.1154783 L48.882291,34.5835602 L40.1238879,34.5835602 L40.1238879,35.337884 C40.201448,35.9132263 40.9228253,36.1336605 41.698887,36.1623172 L41.698887,36.1623172 L45.5104487,36.1623172 C46.4612616,36.1623172 46.4612616,37.588851 45.5104487,37.588851 L45.5104487,37.588851 L41.6600985,37.588851 L41.6451783,37.5878324 C41.1930522,37.5687211 40.5973056,37.5339647 40.0051251,37.3172486 C39.4129446,37.1005321 38.6788754,36.6189689 38.4681181,35.8409753 L38.4681181,35.8409753 L38.4432527,34.1916077 L38.4462572,32.1932552 C38.5119504,31.4803626 39.0913418,30.9375164 39.7627975,30.5610665 C40.5958243,30.1436422 41.534645,29.9518509 42.3630313,29.9487949 L42.3630313,29.9487949 Z M123.227257,29.9487949 L126.143486,29.9498136 C127.733359,30.0046546 129.629529,30.7285809 129.746512,32.1154783 L129.746512,32.1154783 L129.746512,34.5835602 L120.98805,34.5835602 L120.98805,35.337884 C121.065609,35.9132263 121.786989,36.1336621 122.563048,36.1623172 L122.563048,36.1623172 L126.374611,36.1623172 C127.325426,36.1623172 127.325426,37.588851 126.374611,37.588851 L126.374611,37.588851 L122.524261,37.588851 L122.50934,37.5878324 C122.057212,37.5687211 121.461468,37.5339647 120.869289,37.3172486 C120.277109,37.1005321 119.54304,36.6189689 119.332278,35.8409753 L119.332278,35.8409753 L119.307428,34.1916077 L119.310483,32.1932552 C119.376173,31.4803626 119.955566,30.9375164 120.627021,30.5610665 C121.460048,30.1436422 122.39887,29.9518509 123.227257,29.9487949 L123.227257,29.9487949 Z M101.790696,29.9487949 L103.482959,29.9498136 C105.263836,29.9568928 106.945124,30.585296 107.085985,32.1154783 L107.085985,32.1154783 L107.085985,35.3475614 L107.051295,35.5106173 C106.742621,36.7406172 105.458949,37.5052878 103.714064,37.588851 L103.714064,37.588851 L99.7111706,37.588851 L99.6962504,37.5878324 C98.3840257,37.5084471 96.9320909,37.0582273 96.5192085,35.5355057 L96.5192085,35.5355057 L96.4943585,33.580172 C96.5182359,33.1705737 96.6367573,33.0349655 97.1566171,33.0046244 L97.1566171,33.0046244 L105.406173,33.0046244 L105.406173,32.4260209 C105.371088,31.6511332 104.477235,31.3488704 103.660107,31.3743575 L103.660107,31.3743575 L101.790696,31.3743575 C100.861839,31.3005565 100.685282,30.1028736 101.790696,29.9487949 L101.790696,29.9487949 Z M74.291011,29.9487949 L78.1236968,29.9498136 C79.7135697,30.0046546 81.6097398,30.7285809 81.7267234,32.1154783 L81.7267234,32.1154783 L81.7267234,35.6022285 C81.5814066,37.0003603 80.1755717,37.5016546 78.3548225,37.588851 L78.3548225,37.588851 L73.5880146,37.588851 L73.5730944,37.5878324 C73.1209662,37.5687211 72.5252222,37.5339647 71.9330427,37.3172486 C71.3408632,37.1005321 70.606794,36.6189689 70.3960321,35.8409753 L70.3960321,35.8409753 L70.371182,34.1916077 L70.3742374,32.1932552 C70.439927,31.4803626 71.0193199,30.9375164 71.6907751,30.5610665 C72.5238014,30.1436422 73.4626237,29.9518509 74.291011,29.9487949 L74.291011,29.9487949 Z M53.3711231,30.0490223 L53.5152071,30.0506735 L58.4049713,30.0516922 C59.4305758,30.1554934 59.1778926,31.4113351 58.4049713,31.4251788 L58.4049713,31.4251788 L53.3433034,31.4251788 C52.3101758,31.4245926 51.2860654,31.6167369 51.326793,32.8261706 L51.326793,32.8261706 L51.3267746,35.337884 C51.4043348,35.9132263 52.533406,36.1336605 53.3094676,36.1623172 L53.3094676,36.1623172 L58.4049713,36.1623172 C59.3557843,36.1623172 59.3557843,37.588851 58.4049713,37.588851 L58.4049713,37.588851 L53.0051799,37.5886315 C52.1961497,37.5478644 49.9720671,37.4541174 49.721927,35.7392393 L49.721927,35.7392393 L49.6970617,34.1916077 L49.7000661,32.2951337 C49.8834701,30.2760925 52.10003,30.0243409 53.5152071,30.0506735 Z M89.8238164,31.3743404 L85.9836828,31.3743575 C85.4866718,31.4222339 85.0867644,31.5615255 84.8881016,31.7081251 C84.5661052,31.94573 84.4685535,32.2793362 84.4259825,32.7242915 L84.4259825,32.7242915 L84.4257126,36.7130862 C84.6586614,36.5203704 84.9285288,36.1931574 85.5424368,36.1623172 L85.5424368,36.1623172 L89.7104759,36.1623172 C90.8105535,36.1886717 91.5444444,35.8712317 91.5551381,34.9395848 L91.5551381,34.9395848 L91.5551381,32.3243848 C91.3996573,31.5896377 90.6154349,31.3595562 89.6564983,31.3743575 Z M105.406173,33.9244819 C105.236551,34.157463 104.866367,34.4065004 104.353102,34.43076 L104.353102,34.43076 L98.1749799,34.43076 L98.1749799,35.337884 C98.3167473,35.9774483 99.1504916,36.1818298 99.7499784,36.1623172 L99.7499784,36.1623172 L103.714084,36.1623172 C104.766005,36.1726165 105.443245,35.584662 105.406173,34.9395848 L105.406173,34.9395848 Z M78.468163,31.3743404 L73.6095852,31.3743575 C73.1125742,31.4222339 72.7126668,31.5615255 72.514004,31.7081251 C72.1920076,31.94573 72.0944559,32.2793362 72.0518034,32.7242915 L72.0518034,32.7242915 L72.0518034,35.337884 C72.1293631,35.9132263 72.8507424,36.1336621 73.626802,36.1623172 L73.626802,36.1623172 L78.3548225,36.1623172 C79.4549001,36.1886717 80.1887911,35.8712317 80.1994847,34.9395848 L80.1994847,34.9395848 L80.1994847,32.3243848 C80.0440039,31.5896377 79.2597815,31.3595562 78.300845,31.3743575 Z M126.487952,31.3743404 L122.545831,31.3743575 C122.04882,31.4222339 121.648913,31.5615255 121.45025,31.7081251 C121.128254,31.94573 121.030702,32.2793362 120.988131,32.7242915 L120.988131,32.7242915 L120.988131,33.7788123 C121.146112,33.4399355 121.603444,33.2167514 122.130306,33.1570269 L122.130306,33.1570269 L128.219274,33.1570269 L128.219274,32.3243848 C128.063793,31.5896377 127.27957,31.3595562 126.320634,31.3743575 Z M45.6237258,31.3743404 L41.6816076,31.3743575 C41.1845945,31.4222339 40.7846912,31.5615255 40.5860248,31.7081251 C40.2640314,31.94573 40.1664619,32.2793362 40.1239062,32.7242915 L40.1239062,32.7242915 L40.1239062,33.7788123 C40.2818888,33.4399355 40.7392187,33.2167514 41.2660823,33.1570269 L41.2660823,33.1570269 L47.3550503,33.1570269 L47.3550503,32.3243848 C47.199569,31.5896377 46.4153456,31.3595562 45.4564075,31.3743575 Z M99.2784489,16.3071588 C102.425849,16.3071588 104.977317,18.85919 104.977317,22.0072798 C104.977317,22.4834221 104.91895,22.9459286 104.808983,23.3880326 C107.153106,24.531396 108.67071,26.7429767 109.043191,28.624351 L107.85044,28.624351 C107.373522,26.842492 106.07383,25.361032 104.427871,24.4523489 C103.512794,26.3769677 101.550955,27.7073999 99.2784489,27.7074004 C96.3537011,27.7074009 93.9435477,25.5036649 93.6171923,22.6657352 C86.593349,23.2293531 80.2821417,23.8802062 71.711582,29.2880134 C78.1284733,23.7763163 90.5894238,19.9210273 101.909452,22.1678494 C98.8918959,20.8811719 96.6119452,20.4616033 94.2977448,20.0881627 L93.9319833,20.029462 C94.7358464,17.8562714 96.8262796,16.3071588 99.2784489,16.3071588 Z M107.304691,15 C107.839515,15 108.352433,15.2125042 108.730611,15.5907648 C109.108788,15.9690254 109.321246,16.4820569 109.321246,17.0169983 C109.321246,17.5519394 109.108788,18.0649707 108.730611,18.4432311 C108.352433,18.8214914 107.839514,19.0339955 107.304691,19.0339955 C106.769867,19.0339955 106.256949,18.8214914 105.878771,18.4432311 C105.500594,18.0649707 105.288136,17.5519394 105.288136,17.0169983 C105.288136,16.4820569 105.500593,15.9690254 105.878771,15.5907648 C106.256948,15.2125042 106.769867,15 107.304691,15 Z" id="Combined-Shape"></path>
        </g>
    </g>
</svg>